<svg xmlns="http://www.w3.org/2000/svg" width="320" height="200"><rect width="320" height="200" fill="#171329"/><circle cx="160" cy="105" r="22" fill="#FFD166"/><circle cx="152" cy="100" r="3" fill="#171329"/><circle cx="168" cy="100" r="3" fill="#171329"/><path d="M150 114 Q160 108 170 114" fill="none" stroke="#171329" stroke-width="3"/><rect x="38" y="42" width="86" height="30" rx="15" fill="#B565D9" transform="rotate(-14 81 57)"/><rect x="202" y="38" width="82" height="30" rx="15" fill="#B565D9" transform="rotate(13 243 53)"/><rect x="44" y="145" width="72" height="26" rx="13" fill="#B565D9" transform="rotate(12 80 158)"/><rect x="214" y="143" width="68" height="26" rx="13" fill="#B565D9" transform="rotate(-12 248 156)"/><path d="M145 72 L160 48 L175 72" fill="none" stroke="#FF6B9A" stroke-width="5"/><path d="M145 138 L160 162 L175 138" fill="none" stroke="#FF6B9A" stroke-width="5"/></svg>